<svg width="1199" height="498" viewBox="0 0 1199 498" fill="none" xmlns="http://www.w3.org/2000/svg">
<path d="M0 108.937C0 48.773 48.773 0 108.937 0H389.062C449.227 0 498 48.773 498 108.937V389.062C498 449.227 449.227 498 389.062 498H108.937C48.773 498 0 449.227 0 389.062V108.937Z" fill="#B80B7B"/>
<path d="M751.142 355.895C729.009 355.895 709.365 351.33 692.212 342.2C675.059 332.793 661.502 320.205 651.542 304.435C641.582 288.388 636.602 270.128 636.602 249.655C636.602 229.182 641.582 211.06 651.542 195.29C661.502 179.243 675.059 166.517 692.212 157.11C709.365 147.703 729.009 143 751.142 143H783.097V197.365H753.632C742.842 197.365 733.574 199.717 725.827 204.42C718.08 208.847 711.994 215.072 707.567 223.095C703.417 230.842 701.342 239.695 701.342 249.655C701.342 259.615 703.417 268.607 707.567 276.63C711.994 284.377 718.08 290.602 725.827 295.305C733.574 299.732 742.842 301.945 753.632 301.945H783.097V355.895H751.142Z" fill="white"/>
<path d="M915.083 355.895C892.95 355.895 873.307 351.33 856.153 342.2C839 332.793 825.443 320.205 815.483 304.435C805.523 288.388 800.543 270.128 800.543 249.655C800.543 229.182 805.523 211.06 815.483 195.29C825.443 179.243 839 166.517 856.153 157.11C873.307 147.703 892.95 143 915.083 143H947.038V197.365H917.573C906.783 197.365 897.515 199.717 889.768 204.42C882.022 208.847 875.935 215.072 871.508 223.095C867.358 230.842 865.283 239.695 865.283 249.655C865.283 259.615 867.358 268.607 871.508 276.63C875.935 284.377 882.022 290.602 889.768 295.305C897.515 299.732 906.783 301.945 917.573 301.945H947.038V355.895H915.083Z" fill="white"/>
<path d="M1042.7 143.211L1198.74 355.898H1126.53L970.071 143.211H1042.7Z" fill="white"/>
<path d="M1198.74 143.211L1042.28 355.898H970.071L1126.11 143.211H1198.74Z" fill="white"/>
<path d="M143.678 302.589C130.146 316.141 130.146 338.005 143.678 351.557C157.211 365.108 179.042 365.108 192.575 351.557L247.425 296.627C220.361 269.523 176.697 269.523 149.633 296.627L143.678 302.589Z" fill="url(#paint0_linear_1636_9104)"/>
<path fill-rule="evenodd" clip-rule="evenodd" d="M301.17 145.056L247.081 199.145L208.706 160.77C198.026 150.09 183.541 144.09 168.438 144.09C153.335 144.09 138.85 150.09 128.17 160.77L119.304 169.636L197.947 248.279L143.876 302.35C142.638 303.588 141.514 304.895 140.502 306.26C141.464 304.986 142.525 303.761 143.686 302.599L149.641 296.636C176.705 269.532 220.368 269.532 247.433 296.636L192.582 351.566C187.594 356.561 181.479 359.715 175.067 361.028C181.641 359.757 187.918 356.575 193.01 351.484L247.081 297.413L285.471 335.802C296.15 346.482 310.635 352.482 325.739 352.482C340.842 352.482 355.327 346.482 366.007 335.802L374.873 326.936L296.215 248.279L350.304 194.19C363.873 180.62 363.875 158.621 350.307 145.053C336.739 131.485 314.74 131.486 301.17 145.056Z" fill="white"/>
<defs>
<linearGradient id="paint0_linear_1636_9104" x1="153.015" y1="381.285" x2="223.165" y2="272.258" gradientUnits="userSpaceOnUse">
<stop offset="0.510506" stop-color="white"/>
<stop offset="1" stop-color="white" stop-opacity="0.3"/>
</linearGradient>
</defs>
</svg>
