<?xml version="1.0" encoding="UTF-8"?>
<svg id="Layer_1" data-name="Layer 1" xmlns="http://www.w3.org/2000/svg" xmlns:xlink="http://www.w3.org/1999/xlink" version="1.1" viewBox="0 0 60.5 110.7">
  <defs>
    <style>
      .cls-1 {
        fill: url(#linear-gradient);
      }

      .cls-1, .cls-2, .cls-3, .cls-4, .cls-5, .cls-6, .cls-7, .cls-8, .cls-9, .cls-10, .cls-11, .cls-12 {
        stroke-width: 0px;
      }

      .cls-13 {
        fill: #1ead4d;
        font-family: NunitoSans-ExtraBold, 'Nunito Sans';
        font-size: 30px;
        font-weight: 700;
      }

      .cls-13, .cls-14 {
        display: none;
      }

      .cls-2 {
        fill: #15aa11;
      }

      .cls-3 {
        fill: url(#linear-gradient-3);
      }

      .cls-3, .cls-4, .cls-5, .cls-11 {
        fill-rule: evenodd;
      }

      .cls-4 {
        fill: url(#linear-gradient-2);
      }

      .cls-5 {
        fill: url(#linear-gradient-4);
      }

      .cls-6 {
        fill: #b80b7b;
      }

      .cls-7 {
        fill: #ff00c3;
      }

      .cls-8 {
        fill: url(#linear-gradient-5);
      }

      .cls-9 {
        fill: url(#linear-gradient-6);
      }

      .cls-10 {
        fill: #ffffffff;
      }

      .cls-11, .cls-12 {
        fill: #fff;
      }
    </style>
    <linearGradient id="linear-gradient" x1="-696.8" y1="997" x2="-689.2" y2="985.2" gradientTransform="translate(0 -960)" gradientUnits="userSpaceOnUse">
      <stop offset=".5" stop-color="#fff"/>
      <stop offset="1" stop-color="#fff" stop-opacity=".3"/>
    </linearGradient>
    <linearGradient id="linear-gradient-2" x1="22.8" y1="35.7" x2="25.5" y2="30.3" gradientUnits="userSpaceOnUse">
      <stop offset="0" stop-color="#ff00c3" stop-opacity="0"/>
      <stop offset=".5" stop-color="rgba(255, 0, 195, .3)" stop-opacity=".3"/>
      <stop offset="1" stop-color="#ff00c3" stop-opacity=".6"/>
    </linearGradient>
    <linearGradient id="linear-gradient-3" x1="-190" y1="50" x2="-184.1" y2="42.2" gradientTransform="translate(0 75.7) scale(1 -1)" gradientUnits="userSpaceOnUse">
      <stop offset="0" stop-color="#fff" stop-opacity=".3"/>
      <stop offset="1" stop-color="#fff"/>
    </linearGradient>
    <linearGradient id="linear-gradient-4" x1="-50.6" y1="29.1" x2="-45.2" y2="22.1" gradientTransform="translate(0 112.7) scale(1 -1)" xlink:href="#linear-gradient-3"/>
    <linearGradient id="linear-gradient-5" x1="258" y1="123.8" x2="248" y2="121.1" gradientUnits="userSpaceOnUse">
      <stop offset="0" stop-color="#000"/>
      <stop offset=".8" stop-color="#000" stop-opacity="0"/>
    </linearGradient>
    <linearGradient id="linear-gradient-6" x1="249.5" y1="112.4" x2="260" y2="115.1" gradientUnits="userSpaceOnUse">
      <stop offset="0" stop-color="#000"/>
      <stop offset=".8" stop-color="#000" stop-opacity="0"/>
    </linearGradient>
  </defs>
  <g class="cls-14">
    <path class="cls-10" d="M-703.1,97.1c-2.4,0-4.5-.5-6.4-1.5s-3.3-2.4-4.4-4.1c-1.1-1.7-1.6-3.7-1.6-5.9s.5-4.2,1.6-5.9c1.1-1.7,2.5-3.1,4.4-4.1s4-1.5,6.4-1.5h3.5v5.9h-3.2c-1.2,0-2.2.3-3,.8s-1.5,1.2-2,2c-.4.8-.7,1.8-.7,2.9s.2,2.1.7,2.9,1.1,1.5,2,2c.8.5,1.8.7,3,.7h3.2v5.8s-3.5,0-3.5,0ZM-685.3,97.1c-2.4,0-4.5-.5-6.4-1.5s-3.3-2.4-4.4-4.1-1.6-3.7-1.6-5.9.5-4.2,1.6-5.9c1.1-1.7,2.5-3.1,4.4-4.1s4-1.5,6.4-1.5h3.5v5.9h-3.2c-1.2,0-2.2.3-3,.8s-1.5,1.2-2,2c-.4.8-.7,1.8-.7,2.9s.2,2.1.7,2.9,1.1,1.5,2,2c.8.5,1.8.7,3,.7h3.2v5.8s-3.5,0-3.5,0Z"/>
    <path class="cls-10" d="M-671.5,74.3l16.9,23h-7.8l-16.9-23h7.9-.1Z"/>
    <path class="cls-10" d="M-654.6,74.3l-16.9,23h-7.8l16.9-23h7.9,0Z"/>
  </g>
  <g class="cls-14">
    <path class="cls-6" d="M-712.5,8.1c0-6.5,5.3-11.8,11.8-11.8h30.3c6.5,0,11.8,5.3,11.8,11.8v30.3c0,6.5-5.3,11.8-11.8,11.8h-30.3c-6.5,0-11.8-5.3-11.8-11.8V8.1Z"/>
    <path class="cls-1" d="M-697,29c-1.5,1.5-1.5,3.8,0,5.3s3.8,1.5,5.3,0l5.9-5.9c-2.9-2.9-7.7-2.9-10.6,0l-.6.6Z"/>
    <path class="cls-11" d="M-679.9,12l-5.9,5.9-4.2-4.2c-1.2-1.2-2.7-1.8-4.4-1.8s-3.2.6-4.4,1.8l-1,1,8.5,8.5-5.9,5.9c-.1,0-.2.3-.3.4,0,0,.2-.3.3-.4l.6-.6c2.9-2.9,7.7-2.9,10.6,0l-5.9,5.9c-.5.5-1.2.9-1.9,1,.7,0,1.4-.5,1.9-1l5.9-5.9,4.2,4.2c1.2,1.2,2.7,1.8,4.4,1.8s3.2-.6,4.4-1.8l1-1-8.5-8.5,5.9-5.9c1.5-1.5,1.5-3.8,0-5.3-1.5-1.5-3.8-1.5-5.3,0Z"/>
  </g>
  <g>
    <g>
      <path class="cls-10" d="M12.3,100.7c-2.4,0-4.5-.5-6.4-1.5-1.8-1-3.3-2.3-4.4-4.1-1.1-1.7-1.6-3.7-1.6-5.9s.6-4.1,1.6-5.9,2.5-3.1,4.4-4.1c1.8-1,4-1.5,6.4-1.5h3.5v5.9h-3.2c-1.2,0-2.2.3-3,.8s-1.5,1.2-2,2-.7,1.8-.7,2.8.2,2.1.7,2.9c.5.8,1.1,1.5,2,2s1.8.7,3,.7h3.2v5.8h-3.5ZM30,100.7c-2.4,0-4.5-.5-6.4-1.5-1.8-1-3.3-2.3-4.4-4.1-1.1-1.7-1.6-3.7-1.6-5.9s.6-4.1,1.6-5.9,2.5-3.1,4.4-4.1,4-1.5,6.4-1.5h3.5v5.9h-3.2c-1.2,0-2.2.3-3,.8s-1.5,1.2-2,2-.7,1.8-.7,2.8.2,2.1.7,2.9c.5.8,1.1,1.5,2,2s1.8.7,3,.7h3.2v5.8h-3.5Z"/>
      <path class="cls-10" d="M43.7,77.8l16.8,22.9h-7.8l-16.9-22.9h7.8,0Z"/>
      <path class="cls-10" d="M60.5,77.8l-16.9,22.9h-7.8l16.8-22.9h7.8,0Z"/>
    </g>
    <g>
      <path class="cls-7" d="M3.1,11.8C3.1,5.3,8.5,0,15,0h30.5c6.5,0,11.9,5.3,11.9,11.9v30.5c0,6.5-5.3,11.9-11.9,11.9H15c-6.5,0-11.9-5.3-11.9-11.9V11.8Z"/>
      <g>
        <rect class="cls-12" x="14.2" y="23.1" width="31.8" height="7.6" rx="3.8" ry="3.8" transform="translate(-10.2 29.2) rotate(-45)"/>
        <path class="cls-12" d="M21.7,23.1h24.2c0,4.2-3.4,7.6-7.6,7.6H14.2c0-4.2,3.4-7.6,7.6-7.6Z" transform="translate(27.9 -13.4) rotate(45)"/>
        <path class="cls-4" d="M19.8,31.8l-.9.9c-1.5,1.5-1.6,3.9-.2,5.4s3.9,1.6,5.4,0l5.9-5.9-.5-.5c-2.7-2.7-7.1-2.7-9.8,0Z"/>
      </g>
    </g>
  </g>
  <g class="cls-14">
    <path class="cls-7" d="M-208.8,11.8c0-6.5,5.3-11.9,11.9-11.9h30.5c6.5,0,11.9,5.3,11.9,11.9v30.5c0,6.5-5.3,11.9-11.9,11.9h-30.5c-6.5,0-11.9-5.3-11.9-11.9V11.8Z"/>
    <g>
      <path class="cls-3" d="M-172.8,35.2c-.7-.7-1.4-1.2-2.4-1.4-1.3-.4-2.5-.4-3.9,0-.7.3-1.4.3-1.9.3-.8,0-1.9-.2-2.6-.5-.8-.3-1.6-.8-2.3-1.4-1.3-1.3-1.9-2.9-2-4.6v-.3c0-.8.2-1.9.5-2.6s.8-1.6,1.4-2.3c.8-.8,1.9-1.4,3-1.8h0c-4.2.9-11.6,4.7-11.6,13.1.8,1.5,1.7,2.9,3,4.1,1.4,1.4,3,2.5,4.8,3.2,1.9.8,3.7,1.2,5.7,1.1,1.9,0,3.9-.3,5.7-1.1,1.9-.8,3.5-1.9,4.8-3.2l-2.1-2.5Z"/>
      <path class="cls-11" d="M-170.5,16.5l-2.5,2.5c-.8.8-1.8,1.4-2.9,1.6-1.1.3-2.2.3-3.3,0-.7-.3-1.4-.3-1.9-.3s-1.3,0-1.9.3h0c-4.2.9-11.6,4.7-11.6,13.1-.9-2-1.4-4.2-1.4-6.5s.3-3.9,1.1-5.7,1.9-3.5,3.2-4.8c1.4-1.4,3-2.5,4.8-3.2s3.7-1.2,5.7-1.1c1.9,0,3.9.3,5.7,1.1,1.9.7,3.6,1.8,5,3.1Z"/>
    </g>
  </g>
  <g class="cls-14">
    <path class="cls-2" d="M12.3,101.2c-2.4,0-4.6-.5-6.5-1.5-1.9-1-3.4-2.4-4.5-4.2-1.1-1.8-1.6-3.8-1.6-6s.5-4.3,1.6-6c1.1-1.8,2.6-3.2,4.5-4.2,1.9-1,4.1-1.6,6.5-1.6h3.5v6h-3.2c-1.2,0-2.2.3-3.1.8-.9.5-1.5,1.2-2,2.1-.5.9-.7,1.8-.7,2.9s.2,2.1.7,3c.5.9,1.2,1.5,2,2.1.9.5,1.9.7,3.1.7h3.2v5.9h-3.5ZM18.8,101.2v-33.4h7.1v33.4h-7.1ZM41.9,101.8c-2.4,0-4.5-.5-6.3-1.4-1.7-.9-3.1-2.2-4-3.8-.9-1.6-1.4-3.4-1.4-5.3v-13.5h7.1v13.3c0,.8.2,1.6.6,2.3.4.7.9,1.2,1.6,1.6.7.4,1.5.6,2.4.6s1.6-.2,2.3-.6c.7-.4,1.2-1,1.6-1.6.4-.7.6-1.5.6-2.3v-13.3h7.1v13.5c0,2-.5,3.7-1.4,5.3-.9,1.6-2.2,2.9-4,3.8-1.7.9-3.8,1.4-6.2,1.4ZM57.9,101.2v-5.6h11.3c.3,0,.6,0,.8-.2.2-.2.4-.4.6-.6.2-.2.2-.5.2-.8s0-.6-.2-.8c-.2-.2-.4-.4-.6-.5-.2-.2-.5-.2-.8-.2h-4.1c-1.5,0-2.9-.2-4.2-.7-1.2-.5-2.2-1.3-2.9-2.4-.7-1.1-1.1-2.5-1.1-4.3s.3-2.6,1-3.7c.7-1.1,1.6-2,2.7-2.7,1.2-.7,2.4-1,3.8-1h11.3v5.7h-10.2c-.4,0-.8.1-1.1.4-.3.3-.4.6-.4,1s.1.8.4,1.1c.3.3.7.4,1.1.4h4c1.7,0,3.2.3,4.4.8,1.2.5,2.2,1.3,2.9,2.4.7,1.1,1.1,2.5,1.1,4.3s-.4,2.6-1.1,3.7c-.7,1.1-1.6,2-2.7,2.7-1.1.7-2.4,1-3.8,1h-12.3ZM89.1,101.2c-2.2,0-3.9-.6-5.1-1.8-1.2-1.2-1.8-2.9-1.8-5v-22.3h7.1v21.9c0,.4.1.7.4,1,.3.2.6.4,1,.4h5.1v5.9h-6.7ZM78.4,83.6v-5.8h17.4v5.8h-17.4ZM110.7,101.2c-2.7,0-5-.5-7-1.5-2-1-3.6-2.4-4.7-4.1-1.1-1.8-1.6-3.8-1.6-6.1s.5-4.8,1.6-6.6c1.1-1.8,2.5-3.2,4.3-4.2,1.8-1,3.8-1.5,5.9-1.5s4.5.5,6.2,1.6c1.7,1,2.9,2.5,3.8,4.3.9,1.8,1.3,3.8,1.3,6.1s0,.9,0,1.4c0,.5,0,.9-.1,1.2h-15.4c.2.8.5,1.5,1.1,2,.5.5,1.2,1,2,1.2.8.2,1.7.4,2.7.4h7.2v5.9h-6.9ZM104.6,87.3h8.9c0-.5-.2-1-.3-1.4-.1-.5-.3-.9-.6-1.2-.2-.4-.5-.7-.9-.9-.3-.3-.7-.5-1.2-.6-.4-.2-.9-.2-1.5-.2s-1.3.1-1.9.4c-.5.2-1,.6-1.4,1-.4.4-.7.9-.9,1.4-.2.5-.3,1.1-.4,1.6ZM123.4,101.2v-16.6c0-2.1.6-3.8,1.8-5,1.2-1.2,2.9-1.8,5.1-1.8h6.8v5.8h-5.1c-.4,0-.8.2-1.1.5-.3.3-.5.6-.5,1.1v16.1h-7.1ZM151.6,101.2c-2.4,0-4.6-.5-6.4-1.6s-3.4-2.4-4.5-4.2c-1.1-1.8-1.6-3.7-1.6-5.9s.5-4.2,1.6-5.9c1.1-1.8,2.6-3.2,4.5-4.2,1.9-1,4-1.6,6.4-1.6h2.7v2.8h-2.9c-1.7,0-3.2.4-4.6,1.2-1.4.8-2.5,1.8-3.3,3.2-.8,1.3-1.2,2.9-1.2,4.5s.4,3.2,1.2,4.5c.8,1.3,1.9,2.4,3.3,3.2,1.4.8,2.9,1.1,4.6,1.1h2.9v2.8h-2.7ZM169.2,101.8c-2.3,0-4.4-.5-6.3-1.6-1.8-1.1-3.3-2.6-4.3-4.4-1-1.9-1.6-3.9-1.6-6.2s.5-4.4,1.6-6.2c1-1.9,2.5-3.3,4.3-4.4,1.8-1.1,3.9-1.6,6.3-1.6s4.4.5,6.2,1.6c1.8,1.1,3.3,2.5,4.3,4.4,1.1,1.8,1.6,3.9,1.6,6.2s-.5,4.4-1.6,6.2c-1,1.9-2.5,3.3-4.3,4.4-1.8,1.1-3.9,1.6-6.2,1.6ZM169.2,99c1.7,0,3.3-.4,4.6-1.2,1.3-.9,2.4-2,3.1-3.4.8-1.4,1.1-3,1.1-4.8s-.4-3.4-1.1-4.8c-.7-1.4-1.8-2.6-3.1-3.4-1.3-.9-2.9-1.3-4.6-1.3s-3.3.4-4.7,1.3c-1.3.8-2.3,2-3.1,3.4-.7,1.4-1.1,3-1.1,4.8s.4,3.4,1.1,4.8c.8,1.4,1.8,2.6,3.1,3.4,1.3.8,2.9,1.2,4.7,1.2ZM186.2,101.2v-13.6c0-2.1.5-4,1.4-5.5,1-1.6,2.3-2.7,3.9-3.6,1.6-.9,3.4-1.3,5.4-1.3s3.8.4,5.3,1.3c1.6.8,2.9,2,3.8,3.6,1,1.5,1.5,3.4,1.5,5.5v13.6h-3.2v-13.4c0-1.6-.4-3-1.1-4.1-.7-1.2-1.6-2-2.8-2.7-1.1-.6-2.3-.9-3.7-.9s-2.5.3-3.6.9c-1.1.6-2,1.4-2.7,2.6-.7,1.1-1.1,2.5-1.1,4.2v13.4h-3.2ZM221.6,101.2c-2.1,0-3.7-.6-4.9-1.8-1.2-1.2-1.7-2.8-1.7-4.8v-22.5h3.2v22.2c0,1.3.3,2.4,1,3.1.7.7,1.7,1.1,3.1,1.1h4.5v2.8h-5.1ZM210.9,80.7v-2.8h15.9v2.8h-15.9ZM231,101.2v-16.7c0-2.1.6-3.7,1.7-4.8,1.2-1.2,2.8-1.8,4.9-1.8h4v2.8h-3.4c-1.3,0-2.4.4-3.1,1.1-.7.7-1,1.8-1,3.1v16.3h-3.2ZM255.8,101.8c-2.3,0-4.4-.5-6.3-1.6-1.8-1.1-3.3-2.6-4.3-4.4-1-1.9-1.6-3.9-1.6-6.2s.5-4.4,1.6-6.2c1-1.9,2.5-3.3,4.3-4.4,1.8-1.1,3.9-1.6,6.3-1.6s4.4.5,6.2,1.6c1.8,1.1,3.3,2.5,4.3,4.4,1.1,1.8,1.6,3.9,1.6,6.2s-.5,4.4-1.6,6.2c-1,1.9-2.5,3.3-4.3,4.4-1.8,1.1-3.9,1.6-6.2,1.6ZM255.8,99c1.7,0,3.3-.4,4.6-1.2,1.3-.9,2.4-2,3.1-3.4.8-1.4,1.1-3,1.1-4.8s-.4-3.4-1.1-4.8c-.7-1.4-1.8-2.6-3.1-3.4-1.3-.9-2.9-1.3-4.6-1.3s-3.3.4-4.7,1.3c-1.3.8-2.3,2-3.1,3.4-.7,1.4-1.1,3-1.1,4.8s.4,3.4,1.1,4.8c.8,1.4,1.8,2.6,3.1,3.4,1.3.8,2.9,1.2,4.7,1.2ZM272.8,101.2v-33.4h3.2v33.4h-3.2Z"/>
    <rect class="cls-7" x="-72" y="57.7" width="54.9" height="54.9" rx="13.5" ry="13.5"/>
    <path class="cls-5" d="M-35.2,92.3c-.6-.6-1.3-1-2.1-1.3-1.1-.4-2.3-.4-3.5,0-.6.2-1.2.3-1.8.3-.8,0-1.6-.2-2.4-.5-.8-.3-1.4-.8-2-1.3-1.1-1.1-1.8-2.6-1.8-4.2v-.2c0-.8.2-1.6.5-2.4.3-.8.8-1.4,1.3-2,.8-.8,1.7-1.3,2.7-1.6h0c-3.9.8-10.5,4.3-10.5,11.9.7,1.4,1.5,2.6,2.6,3.7,1.3,1.3,2.7,2.2,4.4,2.9,1.6.7,3.4,1,5.2,1,1.8,0,3.5-.3,5.2-1,1.6-.7,3.1-1.7,4.4-2.9l-2.2-2.2Z"/>
    <path class="cls-11" d="M-33,75.4l-2.2,2.2c-.7.7-1.6,1.2-2.6,1.5-1,.2-2,.2-3,0-.6-.2-1.2-.3-1.8-.3-.6,0-1.1,0-1.7.2h0c-3.9.8-10.5,4.3-10.5,11.9-.9-1.8-1.3-3.8-1.3-5.9,0-1.8.3-3.5,1-5.2.7-1.6,1.7-3.1,2.9-4.4,1.3-1.3,2.7-2.2,4.4-2.9,1.6-.7,3.4-1,5.2-1,1.8,0,3.5.3,5.2,1,1.6.7,3.1,1.7,4.4,2.9Z"/>
    <g>
      <g>
        <path class="cls-10" d="M150.5,135.4v-3.4h7.3c.2,0,.4,0,.6-.1.2,0,.3-.2.4-.4.1-.2.2-.4.2-.6s0-.4-.2-.6c0-.2-.2-.3-.4-.4-.2-.1-.4-.2-.6-.2h-2.8c-1,0-1.8-.1-2.6-.4-.8-.3-1.4-.8-1.8-1.5-.4-.7-.7-1.6-.7-2.7s.2-1.6.6-2.3c.4-.7,1-1.3,1.7-1.7.7-.4,1.5-.6,2.4-.6h7v3.4h-6.6c-.3,0-.6,0-.8.3-.2.2-.3.5-.3.8s.1.6.3.8c.2.2.5.3.8.3h2.8c1.1,0,2,.2,2.8.5.8.3,1.4.8,1.8,1.5s.6,1.6.6,2.7-.2,1.7-.6,2.4c-.4.7-1,1.3-1.7,1.7-.7.4-1.5.6-2.4.6h-7.7Z"/>
        <path class="cls-10" d="M172.8,135.4c-1.7,0-3.2-.3-4.5-1-1.3-.7-2.2-1.6-2.9-2.7-.7-1.1-1-2.4-1-3.8s.3-3,1-4.1c.6-1.2,1.5-2.1,2.6-2.7,1.1-.6,2.4-1,3.8-1s3,.4,4.1,1.1c1.1.7,1.8,1.7,2.3,2.8.5,1.2.7,2.5.7,3.9s0,.4,0,.7c0,.3,0,.5,0,.6h-10.1c.2.6.4,1.1.8,1.5.4.4.9.7,1.4.9.6.2,1.2.3,2,.3h4.2v3.4h-4.2ZM168.6,126.5h6.2c0-.4-.1-.7-.2-1,0-.3-.2-.6-.4-.9-.2-.3-.4-.5-.6-.6-.2-.2-.5-.3-.8-.4-.3,0-.7-.1-1-.1s-.9,0-1.3.3c-.4.2-.7.4-.9.7-.3.3-.5.6-.6,1-.1.4-.2.8-.3,1.1Z"/>
        <path class="cls-10" d="M187.1,135.7c-.9,0-1.7-.2-2.4-.7-.7-.5-1.2-1.1-1.5-1.8l-4.3-12.8h4.4l3.5,11.1c0,0,0,.1.1.2,0,0,.1,0,.2,0s.1,0,.2,0c0,0,.1,0,.1-.2l3.5-11.1h4.3l-4.3,12.7c-.3.8-.8,1.4-1.5,1.9-.7.5-1.5.7-2.4.7Z"/>
        <path class="cls-10" d="M203.5,135.4c-1.7,0-3.2-.3-4.5-1-1.3-.7-2.2-1.6-2.9-2.7-.7-1.1-1-2.4-1-3.8s.3-3,1-4.1c.6-1.2,1.5-2.1,2.6-2.7,1.1-.6,2.4-1,3.8-1s3,.4,4.1,1.1c1.1.7,1.8,1.7,2.3,2.8.5,1.2.7,2.5.7,3.9s0,.4,0,.7c0,.3,0,.5,0,.6h-10.1c.2.6.4,1.1.8,1.5.4.4.9.7,1.4.9.6.2,1.2.3,2,.3h4.2v3.4h-4.2ZM199.4,126.5h6.2c0-.4-.1-.7-.2-1,0-.3-.2-.6-.4-.9-.2-.3-.4-.5-.6-.6-.2-.2-.5-.3-.8-.4-.3,0-.7-.1-1-.1s-.9,0-1.3.3c-.4.2-.7.4-.9.7-.3.3-.5.6-.6,1-.1.4-.2.8-.3,1.1Z"/>
        <path class="cls-10" d="M211.4,135.4v-10.7c0-1.3.4-2.4,1.1-3.1.8-.8,1.8-1.1,3.1-1.1h4.1v3.4h-3.4c-.3,0-.5,0-.7.3-.2.2-.3.4-.3.7v10.6h-4Z"/>
        <path class="cls-10" d="M227,135.7c-1.4,0-2.6-.4-3.6-1.1-1-.7-1.8-1.6-2.4-2.8-.5-1.2-.8-2.5-.8-3.9s.3-2.8.9-4c.6-1.2,1.6-2.1,2.8-2.8,1.2-.7,2.6-1.1,4.3-1.1s3.1.4,4.3,1.1c1.2.7,2,1.7,2.6,2.8.6,1.2.9,2.5.9,4v7.5h-4v-2.5h0c-.3.5-.7,1-1.1,1.4-.4.4-1,.8-1.6,1-.6.3-1.4.4-2.2.4ZM228.2,132.3c.8,0,1.5-.2,2-.6s1-.9,1.3-1.6c.3-.7.5-1.4.5-2.3s-.2-1.6-.5-2.2c-.3-.7-.7-1.2-1.3-1.6-.6-.4-1.2-.6-2-.6s-1.5.2-2.1.6c-.6.4-1,.9-1.3,1.6-.3.6-.4,1.4-.4,2.2s.1,1.6.4,2.3c.3.7.8,1.2,1.3,1.6.6.4,1.3.6,2.1.6Z"/>
        <path class="cls-10" d="M239,135.4v-21.4h4v21.4h-4Z"/>
        <path class="cls-10" d="M263.5,135.4v-3.4h7.3c.2,0,.4,0,.6-.1.2,0,.3-.2.4-.4.1-.2.2-.4.2-.6s0-.4-.2-.6c0-.2-.2-.3-.4-.4-.2-.1-.4-.2-.6-.2h-2.8c-1,0-1.8-.1-2.6-.4-.8-.3-1.4-.8-1.8-1.5-.4-.7-.7-1.6-.7-2.7s.2-1.6.6-2.3c.4-.7,1-1.3,1.7-1.7.7-.4,1.5-.6,2.4-.6h7v3.4h-6.6c-.3,0-.6,0-.8.3-.2.2-.3.5-.3.8s.1.6.3.8c.2.2.5.3.8.3h2.8c1.1,0,2,.2,2.8.5.8.3,1.4.8,1.8,1.5.4.7.6,1.6.6,2.7s-.2,1.7-.6,2.4c-.4.7-1,1.3-1.7,1.7-.7.4-1.5.6-2.4.6h-7.7Z"/>
      </g>
      <path class="cls-10" d="M263,117.5c0-4.9-4-8.8-8.8-8.8s-8.8,4-8.8,8.8,3.3,8.2,7.6,8.8l-1.6,2.5c-.6,1.1-.8,2.4-.6,3.7.3,1.2.9,2.2,1.9,3s.1,0,.2.1c.1,0,.2.1.4,0s.2-.1.3-.3l8.3-13.5c0-.2.2-.3.3-.5.6-1.2.9-2.5.9-3.9ZM254.2,121.1c-2,0-3.7-1.6-3.7-3.7s1.6-3.7,3.7-3.7,3.7,1.6,3.7,3.7-.1,1.1-.3,1.5c0,.1-.1.2-.2.3l-.2.4c-.7.9-1.7,1.5-2.9,1.5Z"/>
      <path class="cls-8" d="M254.2,121.1c-1.8,0-3.2-1.2-3.6-2.9h0s-3.2,4.9-3.2,4.9c1.4,1.7,3.4,2.8,5.6,3.2l4.1-6.6c-.7.9-1.7,1.5-2.9,1.5Z"/>
      <path class="cls-9" d="M255.2,108.7h0s0,0,0,0c-5.3,3.2-4.9,7.8-4.7,9.2h0c0-.1,0-.3,0-.4,0-2,1.6-3.7,3.7-3.7s3.4,1.4,3.6,3.2l2.9-5.4c-1.4-1.6-3.3-2.6-5.5-2.9Z"/>
    </g>
    <g>
      <path class="cls-10" d="M128.9,129c-.6,0-1.1-.1-1.5-.4-.5-.2-.8-.6-1-1v1.1h-3v-12h3v4.6c.2-.4.6-.7,1-.9s.9-.3,1.5-.3,1.4.2,1.9.5c.6.4,1,.9,1.3,1.5.3.7.5,1.4.5,2.3s-.2,1.7-.5,2.3c-.3.7-.7,1.2-1.3,1.5-.6.4-1.2.5-1.9.5ZM128,126.8c.5,0,.8-.2,1.1-.5s.4-.9.4-1.6-.1-1.3-.4-1.6c-.3-.3-.7-.5-1.1-.5s-.8.2-1.1.5c-.3.3-.4.9-.4,1.6s.1,1.3.4,1.6.7.5,1.1.5Z"/>
      <path class="cls-10" d="M134.5,131.9l1.7-3.7-3.4-7.8h3.2l1.8,4.8,1.9-4.8h3l-5.1,11.5h-3.1Z"/>
    </g>
  </g>
  <text class="cls-13" transform="translate(149 135.2)"><tspan x="0" y="0">for CSP</tspan></text>
</svg>